<svg xmlns="http://www.w3.org/2000/svg" width="40" height="40" viewBox="0 0 40 40">
  <g id="Group_63672" data-name="Group 63672" transform="translate(0.413 0.127)">
    <rect id="Rectangle_427" data-name="Rectangle 427" width="40" height="40" transform="translate(-0.413 -0.127)" fill="rgba(255,255,255,0)"/>
    <path id="Path_1717" data-name="Path 1717" d="M25.454,25.454a6.823,6.823,0,0,0,1.539-2.364,9.8,9.8,0,0,0,.621-3.24c.065-1.424.08-1.878.08-5.5s-.015-4.08-.08-5.5a9.8,9.8,0,0,0-.621-3.24A6.541,6.541,0,0,0,25.454,3.24,6.543,6.543,0,0,0,23.09,1.7a9.8,9.8,0,0,0-3.24-.62C18.427,1.015,17.972,1,14.347,1s-4.08.015-5.5.08A9.8,9.8,0,0,0,5.6,1.7,6.543,6.543,0,0,0,3.24,3.24,6.542,6.542,0,0,0,1.7,5.6a9.8,9.8,0,0,0-.62,3.24C1.015,10.268,1,10.722,1,14.347s.015,4.08.081,5.5a9.8,9.8,0,0,0,.62,3.24A6.542,6.542,0,0,0,3.24,25.454,6.541,6.541,0,0,0,5.6,26.993a9.8,9.8,0,0,0,3.24.621c1.424.065,1.878.08,5.5.08s4.08-.015,5.5-.08a9.8,9.8,0,0,0,3.24-.621A6.822,6.822,0,0,0,25.454,25.454ZM3.052,12.776c0,.432,0,.946,0,1.571s0,1.139,0,1.571c0,1.686,0,2.122.041,3.081a12.153,12.153,0,0,0,.321,2.751,4.845,4.845,0,0,0,1.115,2.078,4.523,4.523,0,0,0,2.254,1.4,12.646,12.646,0,0,0,2.9.361c1.074.049,1.5.049,3.751.048h2.431c1.727,0,2.163,0,3.131-.042a12.158,12.158,0,0,0,2.751-.321,4.843,4.843,0,0,0,2.077-1.115,4.523,4.523,0,0,0,1.4-2.254,12.637,12.637,0,0,0,.361-2.9c.049-1.072.049-1.5.048-3.74h0V13.438c0-2.252,0-2.677-.048-3.751a12.647,12.647,0,0,0-.361-2.9,4.523,4.523,0,0,0-1.4-2.254,4.844,4.844,0,0,0-2.077-1.115A12.157,12.157,0,0,0,19,3.094c-.968-.044-1.4-.044-3.131-.042H13.438c-2.252,0-2.677,0-3.751.048a12.641,12.641,0,0,0-2.9.361,4.523,4.523,0,0,0-2.254,1.4A4.844,4.844,0,0,0,3.415,6.944a12.154,12.154,0,0,0-.321,2.751C3.05,10.654,3.05,11.09,3.052,12.776ZM14.347,9.727a4.62,4.62,0,1,0,4.62,4.62A4.62,4.62,0,0,0,14.347,9.727Zm-6.673,4.62a6.673,6.673,0,1,1,6.673,6.673A6.673,6.673,0,0,1,7.674,14.347Zm13.8-5.585a1.54,1.54,0,1,0-1.54-1.54A1.54,1.54,0,0,0,21.472,8.762Z" transform="translate(5.811 5.716)" fill="#fff" fill-rule="evenodd"/>
  </g>
</svg>
